# xmcd
#
# Track frame offsets: 
#        150
#        11780
#        24340
#        34938
#        45080
#        55408
#        65493
#        77553
#        90712
#        102030
#        116158
#        124963
#        136642
#        149025
#
# Disc length: 2133 seconds
#
# Revision: 3
# Processed by: cddbd v1.5.2PL0 Copyright (c) Steve Scherf et al.
# Submitted via: ExactAudioCopyFreeDBPlugin 1.0
#
DISCID=ba08530e
DTITLE=The Fantastic Johnny C - Boogaloo Down Broadway:  The Best of t
DTITLE=he Fantastic Johnny C
DYEAR=1998
DGENRE=Soul
TTITLE0=Boogaloo Down Broadway
TTITLE1=Cool Broadway
TTITLE2=Barefootin'
TTITLE3=The Bounce
TTITLE4=Land of 1000 Dances
TTITLE5=Shout Bamalama
TTITLE6=Got What You Need
TTITLE7=Baby I Need You
TTITLE8=(She's) Some Kind of Wonderful
TTITLE9=Stand by Me
TTITLE10=New Love
TTITLE11=Warm and Tender Love
TTITLE12=Hitch it to the Horse
TTITLE13=Look What Love Can Make You Do
EXTD=
EXTT0=
EXTT1=
EXTT2=
EXTT3=
EXTT4=
EXTT5=
EXTT6=
EXTT7=
EXTT8=
EXTT9=
EXTT10=
EXTT11=
EXTT12=
EXTT13=
PLAYORDER=
